# xmcd CD database file
#
# Track frame offsets:
#	150
#	21786
#	46528
#
# Disc length: 863 seconds
#
# Revision: 0
# Processed by: cddbd v1.5.2PL0 Copyright (c) Steve Scherf et al.
# Submitted via: CDex 1.70beta2
#
DISCID=15035d03
DTITLE=Anna Maria Jopek - Teraz i Tu
DYEAR=2007
DGENRE=Jazz
TTITLE0=Teraz i Tu
TTITLE1=Spróbuj mówić kocham (wersja 2005)
TTITLE2=ID (Ben Findlay Mix)
EXTD=YEAR: 2007
EXTT0=
EXTT1=
EXTT2=
PLAYORDER=
